<?xml version="1.0" encoding="UTF-8" standalone="no"?>
<!DOCTYPE svg PUBLIC "-//W3C//DTD SVG 1.1//EN"
 "http://www.w3.org/Graphics/SVG/1.1/DTD/svg11.dtd">
<!-- Generated by graphviz version 13.1.2 (20250808.2320)
 -->
<!-- Title: finite_state_machine Pages: 1 -->
<svg width="477pt" height="163pt"
 viewBox="0.00 0.00 477.00 163.00" xmlns="http://www.w3.org/2000/svg" xmlns:xlink="http://www.w3.org/1999/xlink">
<g id="graph0" class="graph" transform="scale(1 1) rotate(0) translate(4 158.76)">
<title>finite_state_machine</title>
<polygon fill="white" stroke="none" points="-4,4 -4,-158.76 473.41,-158.76 473.41,4 -4,4"/>
<!-- qi -->
<g id="node1" class="node">
<title>qi</title>
<ellipse fill="black" stroke="black" cx="1.8" cy="-96.13" rx="1.8" ry="1.8"/>
</g>
<!-- q0 -->
<g id="node4" class="node">
<title>q0</title>
<ellipse fill="none" stroke="black" cx="60.73" cy="-96.13" rx="20.13" ry="20.13"/>
<text xml:space="preserve" text-anchor="middle" x="60.73" y="-91.08" font-family="Times,serif" font-style="italic" font-size="14.00">q0</text>
</g>
<!-- qi&#45;&gt;q0 -->
<g id="edge1" class="edge">
<title>qi&#45;&gt;q0</title>
<path fill="none" stroke="black" d="M3.79,-96.13C7.01,-96.13 17.65,-96.13 28.79,-96.13"/>
<polygon fill="black" stroke="black" points="28.79,-99.63 38.79,-96.13 28.79,-92.63 28.79,-99.63"/>
</g>
<!-- q1 -->
<g id="node2" class="node">
<title>q1</title>
<ellipse fill="none" stroke="black" cx="265.76" cy="-96.13" rx="20.13" ry="20.13"/>
<ellipse fill="none" stroke="black" cx="265.76" cy="-96.13" rx="24.13" ry="24.13"/>
<text xml:space="preserve" text-anchor="middle" x="265.76" y="-91.08" font-family="Times,serif" font-style="italic" font-size="14.00">q1</text>
</g>
<!-- q1&#45;&gt;q1 -->
<g id="edge9" class="edge">
<title>q1&#45;&gt;q1</title>
<path fill="none" stroke="black" d="M256.15,-118.67C255.1,-129.13 258.31,-138.26 265.76,-138.26 270.3,-138.26 273.26,-134.87 274.64,-129.85"/>
<polygon fill="black" stroke="black" points="278.12,-130.38 275.26,-120.18 271.13,-129.94 278.12,-130.38"/>
<text xml:space="preserve" text-anchor="middle" x="265.76" y="-141.46" font-family="Times,serif" font-style="italic" font-size="14.00">11</text>
</g>
<!-- q3 -->
<g id="node3" class="node">
<title>q3</title>
<ellipse fill="none" stroke="black" cx="161.24" cy="-96.13" rx="20.13" ry="20.13"/>
<ellipse fill="none" stroke="black" cx="161.24" cy="-96.13" rx="24.13" ry="24.13"/>
<text xml:space="preserve" text-anchor="middle" x="161.24" y="-91.08" font-family="Times,serif" font-style="italic" font-size="14.00">q3</text>
</g>
<!-- q1&#45;&gt;q3 -->
<g id="edge11" class="edge">
<title>q1&#45;&gt;q3</title>
<path fill="none" stroke="black" d="M244.54,-83.74C238.09,-80.43 230.77,-77.31 223.62,-75.63 214.86,-73.57 212.14,-73.57 203.37,-75.63 199.8,-76.47 196.19,-77.67 192.66,-79.08"/>
<polygon fill="black" stroke="black" points="191.47,-75.77 183.84,-83.11 194.39,-82.13 191.47,-75.77"/>
<text xml:space="preserve" text-anchor="middle" x="213.5" y="-78.83" font-family="Times,serif" font-style="italic" font-size="14.00">010</text>
</g>
<!-- q4 -->
<g id="node5" class="node">
<title>q4</title>
<ellipse fill="none" stroke="black" cx="366.27" cy="-20.13" rx="20.13" ry="20.13"/>
<text xml:space="preserve" text-anchor="middle" x="366.27" y="-15.08" font-family="Times,serif" font-style="italic" font-size="14.00">q4</text>
</g>
<!-- q1&#45;&gt;q4 -->
<g id="edge7" class="edge">
<title>q1&#45;&gt;q4</title>
<path fill="none" stroke="black" d="M285.28,-81.84C300.99,-69.72 323.64,-52.25 340.83,-38.99"/>
<polygon fill="black" stroke="black" points="342.76,-41.92 348.54,-33.04 338.48,-36.37 342.76,-41.92"/>
<text xml:space="preserve" text-anchor="middle" x="318.01" y="-65.88" font-family="Times,serif" font-style="italic" font-size="14.00">00</text>
</g>
<!-- q3&#45;&gt;q1 -->
<g id="edge6" class="edge">
<title>q3&#45;&gt;q1</title>
<path fill="none" stroke="black" d="M185.76,-96.13C198.91,-96.13 215.56,-96.13 230.17,-96.13"/>
<polygon fill="black" stroke="black" points="229.83,-99.63 239.83,-96.13 229.83,-92.63 229.83,-99.63"/>
<text xml:space="preserve" text-anchor="middle" x="213.5" y="-99.33" font-family="Times,serif" font-style="italic" font-size="14.00">*</text>
</g>
<!-- q0&#45;&gt;q3 -->
<g id="edge2" class="edge">
<title>q0&#45;&gt;q3</title>
<path fill="none" stroke="black" d="M81.19,-96.13C93.76,-96.13 110.47,-96.13 125.29,-96.13"/>
<polygon fill="black" stroke="black" points="125.14,-99.63 135.14,-96.13 125.14,-92.63 125.14,-99.63"/>
<text xml:space="preserve" text-anchor="middle" x="108.99" y="-99.33" font-family="Times,serif" font-style="italic" font-size="14.00">110</text>
</g>
<!-- q0&#45;&gt;q3 -->
<g id="edge13" class="edge">
<title>q0&#45;&gt;q3</title>
<path fill="none" stroke="black" d="M77.98,-84.84C84.22,-81.14 91.59,-77.51 98.86,-75.63 109.06,-73 120.02,-75.05 129.81,-78.69"/>
<polygon fill="black" stroke="black" points="128.33,-81.87 138.89,-82.72 131.17,-75.47 128.33,-81.87"/>
<text xml:space="preserve" text-anchor="middle" x="108.99" y="-78.83" font-family="Times,serif" font-style="italic" font-size="14.00">000</text>
</g>
<!-- q0&#45;&gt;q0 -->
<g id="edge8" class="edge">
<title>q0&#45;&gt;q0</title>
<path fill="none" stroke="black" d="M53.74,-115.36C52.67,-125.3 55,-134.26 60.73,-134.26 64.05,-134.26 66.22,-131.27 67.26,-126.82"/>
<polygon fill="black" stroke="black" points="70.76,-127 67.66,-116.87 63.76,-126.72 70.76,-127"/>
<text xml:space="preserve" text-anchor="middle" x="60.73" y="-137.46" font-family="Times,serif" font-style="italic" font-size="14.00">010</text>
</g>
<!-- q4&#45;&gt;q4 -->
<g id="edge4" class="edge">
<title>q4&#45;&gt;q4</title>
<path fill="none" stroke="black" d="M358.81,-38.97C357.54,-49.06 360.03,-58.26 366.27,-58.26 369.97,-58.26 372.36,-55.02 373.42,-50.27"/>
<polygon fill="black" stroke="black" points="376.91,-50.57 373.69,-40.48 369.91,-50.38 376.91,-50.57"/>
<text xml:space="preserve" text-anchor="middle" x="366.27" y="-61.46" font-family="Times,serif" font-style="italic" font-size="14.00">01</text>
</g>
<!-- q6 -->
<g id="node6" class="node">
<title>q6</title>
<ellipse fill="none" stroke="black" cx="449.28" cy="-66.13" rx="20.13" ry="20.13"/>
<text xml:space="preserve" text-anchor="middle" x="449.28" y="-61.08" font-family="Times,serif" font-style="italic" font-size="14.00">q6</text>
</g>
<!-- q4&#45;&gt;q6 -->
<g id="edge3" class="edge">
<title>q4&#45;&gt;q6</title>
<path fill="none" stroke="black" d="M384.05,-29.66C394.84,-35.79 409.1,-43.88 421.44,-50.89"/>
<polygon fill="black" stroke="black" points="419.5,-53.81 429.92,-55.71 422.95,-47.73 419.5,-53.81"/>
<text xml:space="preserve" text-anchor="middle" x="407.77" y="-47.71" font-family="Times,serif" font-style="italic" font-size="14.00">*</text>
</g>
<!-- q6&#45;&gt;q1 -->
<g id="edge12" class="edge">
<title>q6&#45;&gt;q1</title>
<path fill="none" stroke="black" d="M429.81,-72.47C417.62,-76.41 401.23,-81.26 386.4,-84.13 358.17,-89.6 325.69,-92.66 301.7,-94.32"/>
<polygon fill="black" stroke="black" points="301.59,-90.82 291.83,-94.95 302.04,-97.8 301.59,-90.82"/>
<text xml:space="preserve" text-anchor="middle" x="366.27" y="-93.39" font-family="Times,serif" font-style="italic" font-size="14.00">*</text>
</g>
<!-- q6&#45;&gt;q6 -->
<g id="edge10" class="edge">
<title>q6&#45;&gt;q6</title>
<path fill="none" stroke="black" d="M441.82,-84.97C440.55,-95.06 443.04,-104.26 449.28,-104.26 452.99,-104.26 455.37,-101.02 456.43,-96.27"/>
<polygon fill="black" stroke="black" points="459.92,-96.57 456.7,-86.48 452.92,-96.38 459.92,-96.57"/>
<text xml:space="preserve" text-anchor="middle" x="449.28" y="-107.46" font-family="Times,serif" font-style="italic" font-size="14.00">*</text>
</g>
<!-- q2 -->
<g id="node7" class="node">
<title>q2</title>
<ellipse fill="none" stroke="black" cx="265.76" cy="-20.13" rx="20.13" ry="20.13"/>
<text xml:space="preserve" text-anchor="middle" x="265.76" y="-15.08" font-family="Times,serif" font-style="italic" font-size="14.00">q2</text>
</g>
<!-- q2&#45;&gt;q4 -->
<g id="edge5" class="edge">
<title>q2&#45;&gt;q4</title>
<path fill="none" stroke="black" d="M286.22,-20.13C299.98,-20.13 318.71,-20.13 334.49,-20.13"/>
<polygon fill="black" stroke="black" points="334.33,-23.63 344.33,-20.13 334.33,-16.63 334.33,-23.63"/>
<text xml:space="preserve" text-anchor="middle" x="318.01" y="-23.33" font-family="Times,serif" font-style="italic" font-size="14.00">101</text>
</g>
</g>
</svg>
