<?xml version="1.0" encoding="UTF-8" standalone="no"?>
<!DOCTYPE svg PUBLIC "-//W3C//DTD SVG 1.1//EN"
 "http://www.w3.org/Graphics/SVG/1.1/DTD/svg11.dtd">
<!-- Generated by graphviz version 13.1.2 (20250808.2320)
 -->
<!-- Title: finite_state_machine Pages: 1 -->
<svg width="453pt" height="373pt"
 viewBox="0.00 0.00 453.00 373.00" xmlns="http://www.w3.org/2000/svg" xmlns:xlink="http://www.w3.org/1999/xlink">
<g id="graph0" class="graph" transform="scale(1 1) rotate(0) translate(4 368.63)">
<title>finite_state_machine</title>
<polygon fill="white" stroke="none" points="-4,4 -4,-368.63 448.91,-368.63 448.91,4 -4,4"/>
<!-- qi -->
<g id="node1" class="node">
<title>qi</title>
<ellipse fill="black" stroke="black" cx="1.8" cy="-105.13" rx="1.8" ry="1.8"/>
</g>
<!-- q0 -->
<g id="node6" class="node">
<title>q0</title>
<ellipse fill="none" stroke="black" cx="60.73" cy="-105.13" rx="20.13" ry="20.13"/>
<text xml:space="preserve" text-anchor="middle" x="60.73" y="-100.08" font-family="Times,serif" font-style="italic" font-size="14.00">q0</text>
</g>
<!-- qi&#45;&gt;q0 -->
<g id="edge1" class="edge">
<title>qi&#45;&gt;q0</title>
<path fill="none" stroke="black" d="M3.79,-105.13C7.01,-105.13 17.65,-105.13 28.79,-105.13"/>
<polygon fill="black" stroke="black" points="28.79,-108.63 38.79,-105.13 28.79,-101.63 28.79,-108.63"/>
</g>
<!-- q1 -->
<g id="node2" class="node">
<title>q1</title>
<ellipse fill="none" stroke="black" cx="420.78" cy="-269.13" rx="20.13" ry="20.13"/>
<ellipse fill="none" stroke="black" cx="420.78" cy="-269.13" rx="24.13" ry="24.13"/>
<text xml:space="preserve" text-anchor="middle" x="420.78" y="-264.08" font-family="Times,serif" font-style="italic" font-size="14.00">q1</text>
</g>
<!-- q1&#45;&gt;q0 -->
<g id="edge4" class="edge">
<title>q1&#45;&gt;q0</title>
<path fill="none" stroke="black" d="M408.29,-289.89C393.62,-313.29 365.89,-348.13 330.77,-348.13 146.74,-348.13 146.74,-348.13 146.74,-348.13 119.3,-348.13 112.82,-332.76 98.86,-309.13 66.78,-254.83 61.22,-179.3 60.9,-137.04"/>
<polygon fill="black" stroke="black" points="64.4,-137.07 60.94,-127.06 57.4,-137.05 64.4,-137.07"/>
<text xml:space="preserve" text-anchor="middle" x="238.76" y="-351.33" font-family="Times,serif" font-style="italic" font-size="14.00">0</text>
</g>
<!-- q1&#45;&gt;q0 -->
<g id="edge5" class="edge">
<title>q1&#45;&gt;q0</title>
<path fill="none" stroke="black" d="M398.34,-279.11C380.62,-286.44 354.59,-295.13 330.77,-295.13 146.74,-295.13 146.74,-295.13 146.74,-295.13 78.21,-295.13 64.56,-190.85 62.09,-136.8"/>
<polygon fill="black" stroke="black" points="65.6,-136.85 61.76,-126.98 58.6,-137.09 65.6,-136.85"/>
<text xml:space="preserve" text-anchor="middle" x="238.76" y="-298.33" font-family="Times,serif" font-style="italic" font-size="14.00">1</text>
</g>
<!-- q3 -->
<g id="node3" class="node">
<title>q3</title>
<ellipse fill="none" stroke="black" cx="329.77" cy="-171.13" rx="20.13" ry="20.13"/>
<ellipse fill="none" stroke="black" cx="329.77" cy="-171.13" rx="24.13" ry="24.13"/>
<text xml:space="preserve" text-anchor="middle" x="329.77" y="-166.08" font-family="Times,serif" font-style="italic" font-size="14.00">q3</text>
</g>
<!-- q3&#45;&gt;q1 -->
<g id="edge9" class="edge">
<title>q3&#45;&gt;q1</title>
<path fill="none" stroke="black" d="M346.68,-188.65C360.39,-203.75 380.38,-225.76 396,-242.95"/>
<polygon fill="black" stroke="black" points="393.37,-245.26 402.69,-250.31 398.55,-240.56 393.37,-245.26"/>
<text xml:space="preserve" text-anchor="middle" x="375.27" y="-226.27" font-family="Times,serif" font-style="italic" font-size="14.00">1</text>
</g>
<!-- q6 -->
<g id="node5" class="node">
<title>q6</title>
<ellipse fill="none" stroke="black" cx="147.74" cy="-144.13" rx="20.13" ry="20.13"/>
<ellipse fill="none" stroke="black" cx="147.74" cy="-144.13" rx="24.13" ry="24.13"/>
<text xml:space="preserve" text-anchor="middle" x="147.74" y="-139.08" font-family="Times,serif" font-style="italic" font-size="14.00">q6</text>
</g>
<!-- q3&#45;&gt;q6 -->
<g id="edge8" class="edge">
<title>q3&#45;&gt;q6</title>
<path fill="none" stroke="black" d="M314.68,-152.07C302.72,-137.63 284.16,-118.92 262.89,-110.63 234.56,-99.6 201.06,-112.33 177.71,-125.15"/>
<polygon fill="black" stroke="black" points="176.25,-121.95 169.37,-130 179.77,-128 176.25,-121.95"/>
<text xml:space="preserve" text-anchor="middle" x="238.76" y="-113.83" font-family="Times,serif" font-style="italic" font-size="14.00">0</text>
</g>
<!-- q5 -->
<g id="node4" class="node">
<title>q5</title>
<ellipse fill="none" stroke="black" cx="238.76" cy="-36.13" rx="20.13" ry="20.13"/>
<ellipse fill="none" stroke="black" cx="238.76" cy="-36.13" rx="24.13" ry="24.13"/>
<text xml:space="preserve" text-anchor="middle" x="238.76" y="-31.08" font-family="Times,serif" font-style="italic" font-size="14.00">q5</text>
</g>
<!-- q5&#45;&gt;q1 -->
<g id="edge12" class="edge">
<title>q5&#45;&gt;q1</title>
<path fill="none" stroke="black" d="M260.41,-47.21C285.42,-61.51 327.48,-88.55 353.9,-121.63 381.18,-155.79 399.66,-203.03 409.95,-234.76"/>
<polygon fill="black" stroke="black" points="406.59,-235.75 412.92,-244.25 413.27,-233.66 406.59,-235.75"/>
<text xml:space="preserve" text-anchor="middle" x="329.77" y="-124.83" font-family="Times,serif" font-style="italic" font-size="14.00">0</text>
</g>
<!-- q5&#45;&gt;q0 -->
<g id="edge13" class="edge">
<title>q5&#45;&gt;q0</title>
<path fill="none" stroke="black" d="M215.85,-44.72C184.16,-57.14 125.51,-80.13 90.41,-93.89"/>
<polygon fill="black" stroke="black" points="89.35,-90.55 81.31,-97.45 91.9,-97.06 89.35,-90.55"/>
<text xml:space="preserve" text-anchor="middle" x="147.74" y="-84.04" font-family="Times,serif" font-style="italic" font-size="14.00">1</text>
</g>
<!-- q6&#45;&gt;q3 -->
<g id="edge14" class="edge">
<title>q6&#45;&gt;q3</title>
<path fill="none" stroke="black" d="M171.98,-146.66C195.08,-149.28 231.52,-153.67 262.89,-158.63 273.25,-160.27 284.47,-162.3 294.68,-164.25"/>
<polygon fill="black" stroke="black" points="293.69,-167.62 304.17,-166.1 295.02,-160.75 293.69,-167.62"/>
<text xml:space="preserve" text-anchor="middle" x="238.76" y="-161.83" font-family="Times,serif" font-style="italic" font-size="14.00">0</text>
</g>
<!-- q4 -->
<g id="node8" class="node">
<title>q4</title>
<ellipse fill="none" stroke="black" cx="238.76" cy="-204.13" rx="20.13" ry="20.13"/>
<text xml:space="preserve" text-anchor="middle" x="238.76" y="-199.08" font-family="Times,serif" font-style="italic" font-size="14.00">q4</text>
</g>
<!-- q6&#45;&gt;q4 -->
<g id="edge15" class="edge">
<title>q6&#45;&gt;q4</title>
<path fill="none" stroke="black" d="M168.06,-157.15C181.02,-165.89 198.23,-177.49 212.31,-186.98"/>
<polygon fill="black" stroke="black" points="209.96,-189.61 220.21,-192.3 213.87,-183.81 209.96,-189.61"/>
<text xml:space="preserve" text-anchor="middle" x="193.25" y="-179.13" font-family="Times,serif" font-style="italic" font-size="14.00">1</text>
</g>
<!-- q0&#45;&gt;q6 -->
<g id="edge2" class="edge">
<title>q0&#45;&gt;q6</title>
<path fill="none" stroke="black" d="M79.35,-113.21C89.65,-117.94 102.97,-124.05 115.05,-129.59"/>
<polygon fill="black" stroke="black" points="113.31,-132.64 123.86,-133.63 116.23,-126.28 113.31,-132.64"/>
<text xml:space="preserve" text-anchor="middle" x="102.24" y="-127.83" font-family="Times,serif" font-style="italic" font-size="14.00">0</text>
</g>
<!-- q2 -->
<g id="node7" class="node">
<title>q2</title>
<ellipse fill="none" stroke="black" cx="147.74" cy="-20.13" rx="20.13" ry="20.13"/>
<text xml:space="preserve" text-anchor="middle" x="147.74" y="-15.08" font-family="Times,serif" font-style="italic" font-size="14.00">q2</text>
</g>
<!-- q0&#45;&gt;q2 -->
<g id="edge3" class="edge">
<title>q0&#45;&gt;q2</title>
<path fill="none" stroke="black" d="M70.02,-86.72C76.47,-73.97 86.4,-57.26 98.86,-45.63 104.6,-40.28 111.67,-35.71 118.6,-31.98"/>
<polygon fill="black" stroke="black" points="119.7,-35.34 127.13,-27.79 116.61,-29.06 119.7,-35.34"/>
<text xml:space="preserve" text-anchor="middle" x="102.24" y="-48.83" font-family="Times,serif" font-style="italic" font-size="14.00">1</text>
</g>
<!-- q2&#45;&gt;q5 -->
<g id="edge6" class="edge">
<title>q2&#45;&gt;q5</title>
<path fill="none" stroke="black" d="M168.06,-23.6C178.44,-25.47 191.55,-27.83 203.6,-29.99"/>
<polygon fill="black" stroke="black" points="202.74,-33.39 213.2,-31.72 203.98,-26.5 202.74,-33.39"/>
<text xml:space="preserve" text-anchor="middle" x="193.25" y="-31.81" font-family="Times,serif" font-style="italic" font-size="14.00">0</text>
</g>
<!-- q2&#45;&gt;q0 -->
<g id="edge7" class="edge">
<title>q2&#45;&gt;q0</title>
<path fill="none" stroke="black" d="M127.61,-15.75C118.23,-14.68 107.19,-15.13 98.86,-20.63 80.92,-32.48 71.59,-55.11 66.77,-73.98"/>
<polygon fill="black" stroke="black" points="63.37,-73.11 64.64,-83.63 70.21,-74.62 63.37,-73.11"/>
<text xml:space="preserve" text-anchor="middle" x="102.24" y="-23.83" font-family="Times,serif" font-style="italic" font-size="14.00">1</text>
</g>
<!-- q4&#45;&gt;q3 -->
<g id="edge10" class="edge">
<title>q4&#45;&gt;q3</title>
<path fill="none" stroke="black" d="M258.2,-197.29C269.07,-193.26 283.14,-188.05 295.86,-183.33"/>
<polygon fill="black" stroke="black" points="296.99,-186.65 305.15,-179.89 294.56,-180.08 296.99,-186.65"/>
<text xml:space="preserve" text-anchor="middle" x="284.26" y="-191.82" font-family="Times,serif" font-style="italic" font-size="14.00">0</text>
</g>
<!-- q4&#45;&gt;q4 -->
<g id="edge11" class="edge">
<title>q4&#45;&gt;q4</title>
<path fill="none" stroke="black" d="M230.58,-222.97C229.19,-233.06 231.91,-242.26 238.76,-242.26 242.82,-242.26 245.43,-239.02 246.59,-234.27"/>
<polygon fill="black" stroke="black" points="250.08,-234.58 246.89,-224.48 243.09,-234.37 250.08,-234.58"/>
<text xml:space="preserve" text-anchor="middle" x="238.76" y="-245.46" font-family="Times,serif" font-style="italic" font-size="14.00">1</text>
</g>
</g>
</svg>
