<?xml version="1.0" encoding="UTF-8" standalone="no"?>
<!DOCTYPE svg PUBLIC "-//W3C//DTD SVG 1.1//EN"
 "http://www.w3.org/Graphics/SVG/1.1/DTD/svg11.dtd">
<!-- Generated by graphviz version 13.1.2 (20250808.2320)
 -->
<!-- Title: finite_state_machine Pages: 1 -->
<svg width="224pt" height="171pt"
 viewBox="0.00 0.00 224.00 171.00" xmlns="http://www.w3.org/2000/svg" xmlns:xlink="http://www.w3.org/1999/xlink">
<g id="graph0" class="graph" transform="scale(1 1) rotate(0) translate(4 166.76)">
<title>finite_state_machine</title>
<polygon fill="white" stroke="none" points="-4,4 -4,-166.76 220.29,-166.76 220.29,4 -4,4"/>
<!-- qi -->
<g id="node1" class="node">
<title>qi</title>
<ellipse fill="black" stroke="black" cx="112.14" cy="-68.13" rx="1.8" ry="1.8"/>
</g>
<!-- q0 -->
<g id="node4" class="node">
<title>q0</title>
<ellipse fill="none" stroke="black" cx="196.16" cy="-46.13" rx="20.13" ry="20.13"/>
<text xml:space="preserve" text-anchor="middle" x="196.16" y="-41.08" font-family="Times,serif" font-style="italic" font-size="14.00">q0</text>
</g>
<!-- qi&#45;&gt;q0 -->
<g id="edge1" class="edge">
<title>qi&#45;&gt;q0</title>
<path fill="none" stroke="black" d="M114.3,-67.82C119.92,-66.31 144.89,-59.62 165.61,-54.06"/>
<polygon fill="black" stroke="black" points="166.32,-57.49 175.07,-51.52 164.51,-50.73 166.32,-57.49"/>
</g>
<!-- q3 -->
<g id="node2" class="node">
<title>q3</title>
<ellipse fill="none" stroke="black" cx="24.13" cy="-108.13" rx="20.13" ry="20.13"/>
<ellipse fill="none" stroke="black" cx="24.13" cy="-108.13" rx="24.13" ry="24.13"/>
<text xml:space="preserve" text-anchor="middle" x="24.13" y="-103.08" font-family="Times,serif" font-style="italic" font-size="14.00">q3</text>
</g>
<!-- q1 -->
<g id="node5" class="node">
<title>q1</title>
<ellipse fill="none" stroke="black" cx="112.14" cy="-108.13" rx="20.13" ry="20.13"/>
<text xml:space="preserve" text-anchor="middle" x="112.14" y="-103.08" font-family="Times,serif" font-style="italic" font-size="14.00">q1</text>
</g>
<!-- q3&#45;&gt;q1 -->
<g id="edge5" class="edge">
<title>q3&#45;&gt;q1</title>
<path fill="none" stroke="black" d="M48.63,-108.13C58.46,-108.13 70.02,-108.13 80.5,-108.13"/>
<polygon fill="black" stroke="black" points="80.22,-111.63 90.22,-108.13 80.22,-104.63 80.22,-111.63"/>
<text xml:space="preserve" text-anchor="middle" x="68.14" y="-111.33" font-family="Times,serif" font-style="italic" font-size="14.00">|</text>
</g>
<!-- q4 -->
<g id="node3" class="node">
<title>q4</title>
<ellipse fill="none" stroke="black" cx="112.14" cy="-24.13" rx="20.13" ry="20.13"/>
<ellipse fill="none" stroke="black" cx="112.14" cy="-24.13" rx="24.13" ry="24.13"/>
<text xml:space="preserve" text-anchor="middle" x="112.14" y="-19.08" font-family="Times,serif" font-style="italic" font-size="14.00">q4</text>
</g>
<!-- q4&#45;&gt;q0 -->
<g id="edge6" class="edge">
<title>q4&#45;&gt;q0</title>
<path fill="none" stroke="black" d="M136,-29.87C143.07,-31.68 150.88,-33.71 158.02,-35.63 160.44,-36.28 162.95,-36.97 165.46,-37.66"/>
<polygon fill="black" stroke="black" points="164.26,-40.96 174.83,-40.29 166.15,-34.22 164.26,-40.96"/>
<text xml:space="preserve" text-anchor="middle" x="156.15" y="-38.83" font-family="Times,serif" font-style="italic" font-size="14.00">|</text>
</g>
<!-- q0&#45;&gt;q0 -->
<g id="edge2" class="edge">
<title>q0&#45;&gt;q0</title>
<path fill="none" stroke="black" d="M188.92,-65.36C187.8,-75.3 190.22,-84.26 196.16,-84.26 199.59,-84.26 201.84,-81.27 202.92,-76.82"/>
<polygon fill="black" stroke="black" points="206.41,-77.01 203.33,-66.87 199.42,-76.72 206.41,-77.01"/>
<text xml:space="preserve" text-anchor="middle" x="196.16" y="-87.46" font-family="Times,serif" font-style="italic" font-size="14.00">|</text>
</g>
<!-- q1&#45;&gt;q1 -->
<g id="edge3" class="edge">
<title>q1&#45;&gt;q1</title>
<path fill="none" stroke="black" d="M104.23,-126.97C102.89,-137.06 105.53,-146.26 112.14,-146.26 116.07,-146.26 118.6,-143.02 119.72,-138.27"/>
<polygon fill="black" stroke="black" points="123.21,-138.58 120.01,-128.48 116.22,-138.37 123.21,-138.58"/>
<text xml:space="preserve" text-anchor="middle" x="112.14" y="-149.46" font-family="Times,serif" font-style="italic" font-size="14.00">|</text>
</g>
<!-- q2 -->
<g id="node6" class="node">
<title>q2</title>
<ellipse fill="none" stroke="black" cx="24.13" cy="-24.13" rx="20.13" ry="20.13"/>
<text xml:space="preserve" text-anchor="middle" x="24.13" y="-19.08" font-family="Times,serif" font-style="italic" font-size="14.00">q2</text>
</g>
<!-- q2&#45;&gt;q4 -->
<g id="edge4" class="edge">
<title>q2&#45;&gt;q4</title>
<path fill="none" stroke="black" d="M44.65,-24.13C54.04,-24.13 65.59,-24.13 76.41,-24.13"/>
<polygon fill="black" stroke="black" points="76.21,-27.63 86.21,-24.13 76.21,-20.63 76.21,-27.63"/>
<text xml:space="preserve" text-anchor="middle" x="68.14" y="-27.33" font-family="Times,serif" font-style="italic" font-size="14.00">|</text>
</g>
</g>
</svg>
