<?xml version="1.0" encoding="UTF-8" standalone="no"?>
<!DOCTYPE svg PUBLIC "-//W3C//DTD SVG 1.1//EN"
 "http://www.w3.org/Graphics/SVG/1.1/DTD/svg11.dtd">
<!-- Generated by graphviz version 13.1.2 (20250808.2320)
 -->
<!-- Title: finite_state_machine Pages: 1 -->
<svg width="216pt" height="183pt"
 viewBox="0.00 0.00 216.00 183.00" xmlns="http://www.w3.org/2000/svg" xmlns:xlink="http://www.w3.org/1999/xlink">
<g id="graph0" class="graph" transform="scale(0.821647 0.821647) rotate(0) translate(4 218.29)">
<title>finite_state_machine</title>
<polygon fill="white" stroke="none" points="-4,4 -4,-218.29 258.89,-218.29 258.89,4 -4,4"/>
<!-- qi -->
<g id="node1" class="node">
<title>qi</title>
<ellipse fill="black" stroke="black" cx="1.8" cy="-69.16" rx="1.8" ry="1.8"/>
</g>
<!-- q0 -->
<g id="node3" class="node">
<title>q0</title>
<ellipse fill="none" stroke="black" cx="60.73" cy="-69.16" rx="20.13" ry="20.13"/>
<text xml:space="preserve" text-anchor="middle" x="60.73" y="-64.11" font-family="Times,serif" font-style="italic" font-size="14.00">q0</text>
</g>
<!-- qi&#45;&gt;q0 -->
<g id="edge1" class="edge">
<title>qi&#45;&gt;q0</title>
<path fill="none" stroke="black" d="M3.79,-69.16C7.01,-69.16 17.65,-69.16 28.79,-69.16"/>
<polygon fill="black" stroke="black" points="28.79,-72.66 38.79,-69.16 28.79,-65.66 28.79,-72.66"/>
</g>
<!-- q2 -->
<g id="node2" class="node">
<title>q2</title>
<ellipse fill="none" stroke="black" cx="230.76" cy="-121.16" rx="20.13" ry="20.13"/>
<ellipse fill="none" stroke="black" cx="230.76" cy="-121.16" rx="24.13" ry="24.13"/>
<text xml:space="preserve" text-anchor="middle" x="230.76" y="-116.11" font-family="Times,serif" font-style="italic" font-size="14.00">q2</text>
</g>
<!-- q2&#45;&gt;q2 -->
<g id="edge9" class="edge">
<title>q2&#45;&gt;q2</title>
<path fill="none" stroke="black" d="M226.52,-145.4C226.28,-155.13 227.69,-163.29 230.76,-163.29 232.48,-163.29 233.68,-160.71 234.36,-156.72"/>
<polygon fill="black" stroke="black" points="237.85,-157.09 234.91,-146.91 230.86,-156.7 237.85,-157.09"/>
<text xml:space="preserve" text-anchor="middle" x="230.76" y="-166.49" font-family="Times,serif" font-style="italic" font-size="14.00">b</text>
</g>
<!-- q2&#45;&gt;q2 -->
<g id="edge10" class="edge">
<title>q2&#45;&gt;q2</title>
<path fill="none" stroke="black" d="M223.33,-144.61C220.55,-162.77 223.02,-181.29 230.76,-181.29 236.86,-181.29 239.69,-169.76 239.24,-155.97"/>
<polygon fill="black" stroke="black" points="242.74,-155.75 238.33,-146.12 235.77,-156.4 242.74,-155.75"/>
<text xml:space="preserve" text-anchor="middle" x="230.76" y="-184.49" font-family="Times,serif" font-style="italic" font-size="14.00">c</text>
</g>
<!-- q2&#45;&gt;q0 -->
<g id="edge8" class="edge">
<title>q2&#45;&gt;q0</title>
<path fill="none" stroke="black" d="M206.52,-117.33C179.92,-112.52 135.33,-103.17 98.86,-89.16 95.38,-87.82 91.81,-86.22 88.32,-84.52"/>
<polygon fill="black" stroke="black" points="90.13,-81.51 79.65,-79.96 86.87,-87.71 90.13,-81.51"/>
<text xml:space="preserve" text-anchor="middle" x="143.74" y="-111.59" font-family="Times,serif" font-style="italic" font-size="14.00">a</text>
</g>
<!-- q0&#45;&gt;q2 -->
<g id="edge4" class="edge">
<title>q0&#45;&gt;q2</title>
<path fill="none" stroke="black" d="M67.93,-88.36C73.69,-103.21 83.68,-123.2 98.86,-135.16 126.89,-157.22 169.39,-147.18 198.3,-135.98"/>
<polygon fill="black" stroke="black" points="199.36,-139.33 207.26,-132.27 196.68,-132.86 199.36,-139.33"/>
<text xml:space="preserve" text-anchor="middle" x="143.74" y="-151.47" font-family="Times,serif" font-style="italic" font-size="14.00">c</text>
</g>
<!-- q1 -->
<g id="node4" class="node">
<title>q1</title>
<ellipse fill="none" stroke="black" cx="143.74" cy="-49.16" rx="20.13" ry="20.13"/>
<text xml:space="preserve" text-anchor="middle" x="143.74" y="-44.11" font-family="Times,serif" font-style="italic" font-size="14.00">q1</text>
</g>
<!-- q0&#45;&gt;q1 -->
<g id="edge2" class="edge">
<title>q0&#45;&gt;q1</title>
<path fill="none" stroke="black" d="M81.2,-69.95C88.91,-69.83 97.78,-69.15 105.61,-67.16 108.98,-66.3 112.4,-65.13 115.73,-63.79"/>
<polygon fill="black" stroke="black" points="116.92,-67.09 124.54,-59.73 114,-60.73 116.92,-67.09"/>
<text xml:space="preserve" text-anchor="middle" x="102.24" y="-71.58" font-family="Times,serif" font-style="italic" font-size="14.00">a</text>
</g>
<!-- q0&#45;&gt;q1 -->
<g id="edge3" class="edge">
<title>q0&#45;&gt;q1</title>
<path fill="none" stroke="black" d="M77.11,-57.25C83.48,-53.03 91.17,-48.81 98.86,-46.66 103.2,-45.44 107.88,-44.93 112.5,-44.84"/>
<polygon fill="black" stroke="black" points="111.99,-48.32 122.15,-45.32 112.33,-41.33 111.99,-48.32"/>
<text xml:space="preserve" text-anchor="middle" x="102.24" y="-49.86" font-family="Times,serif" font-style="italic" font-size="14.00">b</text>
</g>
<!-- q1&#45;&gt;q2 -->
<g id="edge5" class="edge">
<title>q1&#45;&gt;q2</title>
<path fill="none" stroke="black" d="M159.55,-61.7C171.53,-71.84 188.7,-86.39 203.06,-98.55"/>
<polygon fill="black" stroke="black" points="200.52,-100.99 210.42,-104.78 205.05,-95.64 200.52,-100.99"/>
<text xml:space="preserve" text-anchor="middle" x="185.25" y="-88.36" font-family="Times,serif" font-style="italic" font-size="14.00">a</text>
</g>
<!-- q1&#45;&gt;q0 -->
<g id="edge6" class="edge">
<title>q1&#45;&gt;q0</title>
<path fill="none" stroke="black" d="M129.56,-34.39C120.98,-26.65 109.45,-19.7 98.86,-24.66 90.53,-28.56 83.42,-35.34 77.71,-42.46"/>
<polygon fill="black" stroke="black" points="75.12,-40.06 72.13,-50.23 80.81,-44.15 75.12,-40.06"/>
<text xml:space="preserve" text-anchor="middle" x="102.24" y="-27.86" font-family="Times,serif" font-style="italic" font-size="14.00">b</text>
</g>
<!-- q1&#45;&gt;q0 -->
<g id="edge7" class="edge">
<title>q1&#45;&gt;q0</title>
<path fill="none" stroke="black" d="M135.32,-30.65C127.49,-14.08 114.18,6.33 98.86,-2.66 85.36,-10.58 76.41,-25.39 70.68,-39.03"/>
<polygon fill="black" stroke="black" points="67.5,-37.55 67.29,-48.14 74.06,-39.99 67.5,-37.55"/>
<text xml:space="preserve" text-anchor="middle" x="102.24" y="-5.86" font-family="Times,serif" font-style="italic" font-size="14.00">c</text>
</g>
</g>
</svg>
