<?xml version="1.0" encoding="UTF-8" standalone="no"?>
<!DOCTYPE svg PUBLIC "-//W3C//DTD SVG 1.1//EN"
 "http://www.w3.org/Graphics/SVG/1.1/DTD/svg11.dtd">
<!-- Generated by graphviz version 2.42.4 (0)
 -->
<!-- Title: finite_state_machine Pages: 1 -->
<svg width="288pt" height="171pt"
 viewBox="0.00 0.00 288.00 170.84" xmlns="http://www.w3.org/2000/svg" xmlns:xlink="http://www.w3.org/1999/xlink">
<g id="graph0" class="graph" transform="scale(0.74 0.74) rotate(0) translate(4 227.34)">
<title>finite_state_machine</title>
<polygon fill="white" stroke="transparent" points="-4,4 -4,-227.34 385.98,-227.34 385.98,4 -4,4"/>
<!-- qi -->
<g id="node1" class="node">
<title>qi</title>
<ellipse fill="black" stroke="black" cx="26.75" cy="-83.59" rx="1.8" ry="1.8"/>
</g>
<!-- q0 -->
<g id="node3" class="node">
<title>q0</title>
<ellipse fill="none" stroke="black" cx="113.24" cy="-83.59" rx="23" ry="23"/>
<text text-anchor="middle" x="113.24" y="-79.89" font-family="Times,serif" font-style="italic" font-size="14.00">q0</text>
</g>
<!-- qi&#45;&gt;q0 -->
<g id="edge1" class="edge">
<title>qi&#45;&gt;q0</title>
<path fill="none" stroke="black" d="M28.7,-83.59C33.84,-83.59 58.92,-83.59 80.27,-83.59"/>
<polygon fill="black" stroke="black" points="80.35,-87.09 90.35,-83.59 80.35,-80.09 80.35,-87.09"/>
</g>
<!-- q1 -->
<g id="node2" class="node">
<title>q1</title>
<ellipse fill="none" stroke="black" cx="26.75" cy="-130.59" rx="22.96" ry="22.96"/>
<ellipse fill="none" stroke="black" cx="26.75" cy="-130.59" rx="27" ry="27"/>
<text text-anchor="middle" x="26.75" y="-126.89" font-family="Times,serif" font-style="italic" font-size="14.00">q1</text>
</g>
<!-- q1&#45;&gt;q1 -->
<g id="edge4" class="edge">
<title>q1&#45;&gt;q1</title>
<path fill="none" stroke="black" d="M22.63,-157.24C22.5,-167.17 23.87,-175.34 26.75,-175.34 28.55,-175.34 29.76,-172.15 30.38,-167.33"/>
<polygon fill="black" stroke="black" points="33.88,-167.39 30.86,-157.24 26.89,-167.06 33.88,-167.39"/>
<text text-anchor="middle" x="26.75" y="-179.14" font-family="Times,serif" font-style="italic" font-size="14.00">bbb</text>
</g>
<!-- q1&#45;&gt;q1 -->
<g id="edge5" class="edge">
<title>q1&#45;&gt;q1</title>
<path fill="none" stroke="black" d="M19.39,-156.38C16.99,-174.89 19.44,-193.34 26.75,-193.34 32.68,-193.34 35.42,-181.16 34.95,-166.66"/>
<polygon fill="black" stroke="black" points="38.41,-166.06 34.11,-156.38 31.43,-166.63 38.41,-166.06"/>
<text text-anchor="middle" x="26.75" y="-197.14" font-family="Times,serif" font-style="italic" font-size="14.00">ba</text>
</g>
<!-- q0&#45;&gt;q0 -->
<g id="edge6" class="edge">
<title>q0&#45;&gt;q0</title>
<path fill="none" stroke="black" d="M105.89,-105.39C105.09,-115.51 107.54,-124.34 113.24,-124.34 116.9,-124.34 119.22,-120.72 120.2,-115.45"/>
<polygon fill="black" stroke="black" points="123.7,-115.52 120.6,-105.39 116.71,-115.25 123.7,-115.52"/>
<text text-anchor="middle" x="113.24" y="-128.14" font-family="Times,serif" font-style="italic" font-size="14.00">cba</text>
</g>
<!-- q2 -->
<g id="node4" class="node">
<title>q2</title>
<ellipse fill="none" stroke="black" cx="227.74" cy="-83.59" rx="23" ry="23"/>
<text text-anchor="middle" x="227.74" y="-79.89" font-family="Times,serif" font-style="italic" font-size="14.00">q2</text>
</g>
<!-- q0&#45;&gt;q2 -->
<g id="edge8" class="edge">
<title>q0&#45;&gt;q2</title>
<path fill="none" stroke="black" d="M128.68,-100.91C135.55,-107.8 144.36,-114.96 153.99,-118.59 167.71,-123.77 173.27,-123.77 186.99,-118.59 193.31,-116.21 199.28,-112.31 204.58,-107.96"/>
<polygon fill="black" stroke="black" points="207.28,-110.23 212.3,-100.91 202.56,-105.06 207.28,-110.23"/>
<text text-anchor="middle" x="170.49" y="-125.39" font-family="Times,serif" font-style="italic" font-size="14.00">*</text>
</g>
<!-- q0&#45;&gt;q2 -->
<g id="edge9" class="edge">
<title>q0&#45;&gt;q2</title>
<path fill="none" stroke="black" d="M136.2,-83.59C152.85,-83.59 175.98,-83.59 194.69,-83.59"/>
<polygon fill="black" stroke="black" points="194.84,-87.09 204.84,-83.59 194.84,-80.09 194.84,-87.09"/>
<text text-anchor="middle" x="170.49" y="-87.39" font-family="Times,serif" font-style="italic" font-size="14.00">bb</text>
</g>
<!-- q0&#45;&gt;q2 -->
<g id="edge14" class="edge">
<title>q0&#45;&gt;q2</title>
<path fill="none" stroke="black" d="M133.43,-72.31C139.76,-69.17 146.98,-66.18 153.99,-64.59 168.3,-61.35 172.69,-61.35 186.99,-64.59 190.72,-65.44 194.5,-66.68 198.18,-68.12"/>
<polygon fill="black" stroke="black" points="197,-71.43 207.56,-72.31 199.85,-65.04 197,-71.43"/>
<text text-anchor="middle" x="170.49" y="-68.39" font-family="Times,serif" font-style="italic" font-size="14.00">c</text>
</g>
<!-- q2&#45;&gt;q0 -->
<g id="edge2" class="edge">
<title>q2&#45;&gt;q0</title>
<path fill="none" stroke="black" d="M218.08,-62.84C211.56,-50.15 201.29,-34.98 186.99,-27.59 173.96,-20.86 167.02,-20.86 153.99,-27.59 142.93,-33.31 134.28,-43.67 127.91,-53.95"/>
<polygon fill="black" stroke="black" points="124.77,-52.41 122.91,-62.84 130.86,-55.85 124.77,-52.41"/>
<text text-anchor="middle" x="170.49" y="-31.39" font-family="Times,serif" font-style="italic" font-size="14.00">cacb</text>
</g>
<!-- q3 -->
<g id="node5" class="node">
<title>q3</title>
<ellipse fill="none" stroke="black" cx="359.24" cy="-83.59" rx="23" ry="23"/>
<text text-anchor="middle" x="359.24" y="-79.89" font-family="Times,serif" font-style="italic" font-size="14.00">q3</text>
</g>
<!-- q2&#45;&gt;q3 -->
<g id="edge3" class="edge">
<title>q2&#45;&gt;q3</title>
<path fill="none" stroke="black" d="M237.88,-104.17C244.48,-116.31 254.67,-130.61 268.49,-137.59 288.32,-147.62 298.66,-147.62 318.49,-137.59 329.07,-132.24 337.52,-122.61 343.86,-112.94"/>
<polygon fill="black" stroke="black" points="346.97,-114.55 349.09,-104.17 340.96,-110.97 346.97,-114.55"/>
<text text-anchor="middle" x="293.49" y="-148.39" font-family="Times,serif" font-style="italic" font-size="14.00">b</text>
</g>
<!-- q2&#45;&gt;q3 -->
<g id="edge7" class="edge">
<title>q2&#45;&gt;q3</title>
<path fill="none" stroke="black" d="M248.5,-93.28C254.75,-95.86 261.77,-98.29 268.49,-99.59 290.3,-103.82 296.67,-103.82 318.49,-99.59 321.95,-98.92 325.5,-97.95 328.97,-96.81"/>
<polygon fill="black" stroke="black" points="330.32,-100.05 338.47,-93.28 327.88,-93.49 330.32,-100.05"/>
<text text-anchor="middle" x="293.49" y="-106.39" font-family="Times,serif" font-style="italic" font-size="14.00">*</text>
</g>
<!-- q2&#45;&gt;q3 -->
<g id="edge10" class="edge">
<title>q2&#45;&gt;q3</title>
<path fill="none" stroke="black" d="M250.59,-81.65C256.4,-81.21 262.68,-80.81 268.49,-80.59 290.69,-79.76 296.28,-79.76 318.49,-80.59 321.03,-80.69 323.66,-80.82 326.3,-80.97"/>
<polygon fill="black" stroke="black" points="326.17,-84.47 336.38,-81.65 326.64,-77.49 326.17,-84.47"/>
<text text-anchor="middle" x="293.49" y="-84.39" font-family="Times,serif" font-style="italic" font-size="14.00">bcbbcc</text>
</g>
<!-- q2&#45;&gt;q3 -->
<g id="edge13" class="edge">
<title>q2&#45;&gt;q3</title>
<path fill="none" stroke="black" d="M246.85,-70.44C253.35,-66.46 260.94,-62.62 268.49,-60.59 289.95,-54.83 297.03,-54.83 318.49,-60.59 322.73,-61.73 326.99,-63.45 331.06,-65.44"/>
<polygon fill="black" stroke="black" points="329.68,-68.67 340.13,-70.44 333.06,-62.54 329.68,-68.67"/>
<text text-anchor="middle" x="293.49" y="-64.39" font-family="Times,serif" font-style="italic" font-size="14.00">aa</text>
</g>
<!-- q3&#45;&gt;q2 -->
<g id="edge12" class="edge">
<title>q3&#45;&gt;q2</title>
<path fill="none" stroke="black" d="M353.18,-61.53C347.82,-43.78 337.43,-19.99 318.49,-8.59 299.45,2.86 287.53,2.86 268.49,-8.59 252.8,-18.03 242.98,-35.97 237.03,-51.94"/>
<polygon fill="black" stroke="black" points="233.67,-50.93 233.8,-61.53 240.3,-53.17 233.67,-50.93"/>
<text text-anchor="middle" x="293.49" y="-12.39" font-family="Times,serif" font-style="italic" font-size="14.00">ba</text>
</g>
<!-- q3&#45;&gt;q3 -->
<g id="edge11" class="edge">
<title>q3&#45;&gt;q3</title>
<path fill="none" stroke="black" d="M347.81,-103.3C345.68,-114.25 349.49,-124.34 359.24,-124.34 365.79,-124.34 369.66,-119.79 370.84,-113.48"/>
<polygon fill="black" stroke="black" points="374.34,-113.24 370.66,-103.3 367.34,-113.36 374.34,-113.24"/>
<text text-anchor="middle" x="359.24" y="-128.14" font-family="Times,serif" font-style="italic" font-size="14.00">*</text>
</g>
</g>
</svg>
