<?xml version="1.0" encoding="UTF-8" standalone="no"?>
<!DOCTYPE svg PUBLIC "-//W3C//DTD SVG 1.1//EN"
 "http://www.w3.org/Graphics/SVG/1.1/DTD/svg11.dtd">
<!-- Generated by graphviz version 13.1.2 (20250808.2320)
 -->
<!-- Title: finite_state_machine Pages: 1 -->
<svg width="504pt" height="402pt"
 viewBox="0.00 0.00 504.00 402.00" xmlns="http://www.w3.org/2000/svg" xmlns:xlink="http://www.w3.org/1999/xlink">
<g id="graph0" class="graph" transform="scale(0.884854 0.884854) rotate(0) translate(4 450.5)">
<title>finite_state_machine</title>
<polygon fill="white" stroke="none" points="-4,4 -4,-450.5 565.59,-450.5 565.59,4 -4,4"/>
<!-- qi -->
<g id="node1" class="node">
<title>qi</title>
<ellipse fill="black" stroke="black" cx="20.13" cy="-286" rx="1.8" ry="1.8"/>
</g>
<!-- q0 -->
<g id="node5" class="node">
<title>q0</title>
<ellipse fill="none" stroke="black" cx="102.39" cy="-286" rx="20.13" ry="20.13"/>
<text xml:space="preserve" text-anchor="middle" x="102.39" y="-280.95" font-family="Times,serif" font-style="italic" font-size="14.00">q0</text>
</g>
<!-- qi&#45;&gt;q0 -->
<g id="edge1" class="edge">
<title>qi&#45;&gt;q0</title>
<path fill="none" stroke="black" d="M22.27,-286C27.59,-286 50.69,-286 70.57,-286"/>
<polygon fill="black" stroke="black" points="70.53,-289.5 80.53,-286 70.53,-282.5 70.53,-289.5"/>
</g>
<!-- q1 -->
<g id="node2" class="node">
<title>q1</title>
<ellipse fill="none" stroke="black" cx="280.42" cy="-116" rx="20.13" ry="20.13"/>
<ellipse fill="none" stroke="black" cx="280.42" cy="-116" rx="24.13" ry="24.13"/>
<text xml:space="preserve" text-anchor="middle" x="280.42" y="-110.95" font-family="Times,serif" font-style="italic" font-size="14.00">q1</text>
</g>
<!-- q2 -->
<g id="node3" class="node">
<title>q2</title>
<ellipse fill="none" stroke="black" cx="189.41" cy="-156" rx="20.13" ry="20.13"/>
<ellipse fill="none" stroke="black" cx="189.41" cy="-156" rx="24.13" ry="24.13"/>
<text xml:space="preserve" text-anchor="middle" x="189.41" y="-150.95" font-family="Times,serif" font-style="italic" font-size="14.00">q2</text>
</g>
<!-- q1&#45;&gt;q2 -->
<g id="edge6" class="edge">
<title>q1&#45;&gt;q2</title>
<path fill="none" stroke="black" d="M258.07,-125.59C247.38,-130.4 234.23,-136.31 222.37,-141.63"/>
<polygon fill="black" stroke="black" points="221.02,-138.41 213.33,-145.7 223.89,-144.79 221.02,-138.41"/>
<text xml:space="preserve" text-anchor="middle" x="234.91" y="-140.4" font-family="Times,serif" font-style="italic" font-size="14.00">b</text>
</g>
<!-- q5 -->
<g id="node6" class="node">
<title>q5</title>
<ellipse fill="none" stroke="black" cx="367.43" cy="-203" rx="20.13" ry="20.13"/>
<text xml:space="preserve" text-anchor="middle" x="367.43" y="-197.95" font-family="Times,serif" font-style="italic" font-size="14.00">q5</text>
</g>
<!-- q1&#45;&gt;q5 -->
<g id="edge5" class="edge">
<title>q1&#45;&gt;q5</title>
<path fill="none" stroke="black" d="M302.45,-125.74C311.39,-130.55 321.53,-136.95 329.3,-144.5 338.29,-153.24 346.12,-164.56 352.24,-174.92"/>
<polygon fill="black" stroke="black" points="349.1,-176.47 357.03,-183.49 355.21,-173.05 349.1,-176.47"/>
<text xml:space="preserve" text-anchor="middle" x="325.92" y="-147.7" font-family="Times,serif" font-style="italic" font-size="14.00">a</text>
</g>
<!-- q6 -->
<g id="node7" class="node">
<title>q6</title>
<ellipse fill="none" stroke="black" cx="541.45" cy="-105" rx="20.13" ry="20.13"/>
<text xml:space="preserve" text-anchor="middle" x="541.45" y="-99.95" font-family="Times,serif" font-style="italic" font-size="14.00">q6</text>
</g>
<!-- q1&#45;&gt;q6 -->
<g id="edge7" class="edge">
<title>q1&#45;&gt;q6</title>
<path fill="none" stroke="black" d="M304.86,-115C351.77,-113.01 457.16,-108.54 509.61,-106.31"/>
<polygon fill="black" stroke="black" points="509.49,-109.82 519.33,-105.9 509.19,-102.82 509.49,-109.82"/>
<text xml:space="preserve" text-anchor="middle" x="408.94" y="-113.83" font-family="Times,serif" font-style="italic" font-size="14.00">c</text>
</g>
<!-- q2&#45;&gt;q1 -->
<g id="edge9" class="edge">
<title>q2&#45;&gt;q1</title>
<path fill="none" stroke="black" d="M204.11,-136.4C211.21,-127.97 220.68,-119.03 231.54,-114.5 235.73,-112.75 240.32,-111.82 244.95,-111.43"/>
<polygon fill="black" stroke="black" points="244.78,-114.93 254.79,-111.44 244.79,-107.93 244.78,-114.93"/>
<text xml:space="preserve" text-anchor="middle" x="234.91" y="-117.7" font-family="Times,serif" font-style="italic" font-size="14.00">b</text>
</g>
<!-- q2&#45;&gt;q5 -->
<g id="edge8" class="edge">
<title>q2&#45;&gt;q5</title>
<path fill="none" stroke="black" d="M213.06,-162.05C244.59,-170.47 301.77,-185.74 336.7,-195.06"/>
<polygon fill="black" stroke="black" points="335.6,-198.39 346.16,-197.59 337.4,-191.63 335.6,-198.39"/>
<text xml:space="preserve" text-anchor="middle" x="280.42" y="-189.66" font-family="Times,serif" font-style="italic" font-size="14.00">a</text>
</g>
<!-- q2&#45;&gt;q6 -->
<g id="edge10" class="edge">
<title>q2&#45;&gt;q6</title>
<path fill="none" stroke="black" d="M193.04,-131.97C199.31,-88.21 219.39,0 279.42,0 279.42,0 279.42,0 455.44,0 494.3,0 518.46,-43.97 530.68,-75"/>
<polygon fill="black" stroke="black" points="527.38,-76.15 534.12,-84.32 533.94,-73.73 527.38,-76.15"/>
<text xml:space="preserve" text-anchor="middle" x="367.43" y="-3.2" font-family="Times,serif" font-style="italic" font-size="14.00">c</text>
</g>
<!-- q3 -->
<g id="node4" class="node">
<title>q3</title>
<ellipse fill="none" stroke="black" cx="454.44" cy="-286" rx="20.13" ry="20.13"/>
<ellipse fill="none" stroke="black" cx="454.44" cy="-286" rx="24.13" ry="24.13"/>
<text xml:space="preserve" text-anchor="middle" x="454.44" y="-280.95" font-family="Times,serif" font-style="italic" font-size="14.00">q3</text>
</g>
<!-- q3&#45;&gt;q0 -->
<g id="edge12" class="edge">
<title>q3&#45;&gt;q0</title>
<path fill="none" stroke="black" d="M437.39,-303.65C421.52,-319.07 395.74,-339 368.43,-339 188.41,-339 188.41,-339 188.41,-339 163.9,-339 140.61,-322.94 124.63,-308.51"/>
<polygon fill="black" stroke="black" points="127.28,-306.2 117.64,-301.81 122.44,-311.25 127.28,-306.2"/>
<text xml:space="preserve" text-anchor="middle" x="280.42" y="-342.2" font-family="Times,serif" font-style="italic" font-size="14.00">b</text>
</g>
<!-- q3&#45;&gt;q0 -->
<g id="edge13" class="edge">
<title>q3&#45;&gt;q0</title>
<path fill="none" stroke="black" d="M429.99,-286C412.92,-286 389.24,-286 368.43,-286 188.41,-286 188.41,-286 188.41,-286 170.53,-286 150.54,-286 134.43,-286"/>
<polygon fill="black" stroke="black" points="134.49,-282.5 124.49,-286 134.49,-289.5 134.49,-282.5"/>
<text xml:space="preserve" text-anchor="middle" x="280.42" y="-289.2" font-family="Times,serif" font-style="italic" font-size="14.00">c</text>
</g>
<!-- q3&#45;&gt;q6 -->
<g id="edge11" class="edge">
<title>q3&#45;&gt;q6</title>
<path fill="none" stroke="black" d="M465.7,-264.17C481.06,-231.45 510.08,-169.67 527.09,-133.46"/>
<polygon fill="black" stroke="black" points="530.23,-135.01 531.31,-124.47 523.89,-132.03 530.23,-135.01"/>
<text xml:space="preserve" text-anchor="middle" x="499.95" y="-198.7" font-family="Times,serif" font-style="italic" font-size="14.00">a</text>
</g>
<!-- q0&#45;&gt;q2 -->
<g id="edge3" class="edge">
<title>q0&#45;&gt;q2</title>
<path fill="none" stroke="black" d="M110.74,-267.29C117.42,-251.3 128.1,-228.01 140.52,-209.5 147.3,-199.41 155.85,-189.24 163.86,-180.52"/>
<polygon fill="black" stroke="black" points="166.22,-183.12 170.55,-173.44 161.14,-178.31 166.22,-183.12"/>
<text xml:space="preserve" text-anchor="middle" x="143.9" y="-212.7" font-family="Times,serif" font-style="italic" font-size="14.00">b</text>
</g>
<!-- q0&#45;&gt;q0 -->
<g id="edge2" class="edge">
<title>q0&#45;&gt;q0</title>
<path fill="none" stroke="black" d="M94.95,-305.23C93.81,-315.17 96.29,-324.13 102.39,-324.13 105.92,-324.13 108.24,-321.14 109.35,-316.69"/>
<polygon fill="black" stroke="black" points="112.84,-316.88 109.77,-306.74 105.85,-316.58 112.84,-316.88"/>
<text xml:space="preserve" text-anchor="middle" x="102.39" y="-327.33" font-family="Times,serif" font-style="italic" font-size="14.00">a</text>
</g>
<!-- q0&#45;&gt;q5 -->
<g id="edge4" class="edge">
<title>q0&#45;&gt;q5</title>
<path fill="none" stroke="black" d="M121.44,-278.93C127.48,-276.64 134.26,-274.13 140.52,-272 210.21,-248.25 293.27,-223.87 336.66,-211.43"/>
<polygon fill="black" stroke="black" points="337.45,-214.85 346.1,-208.74 335.52,-208.12 337.45,-214.85"/>
<text xml:space="preserve" text-anchor="middle" x="234.91" y="-245.36" font-family="Times,serif" font-style="italic" font-size="14.00">c</text>
</g>
<!-- q5&#45;&gt;q1 -->
<g id="edge18" class="edge">
<title>q5&#45;&gt;q1</title>
<path fill="none" stroke="black" d="M351.97,-189.62C343.3,-181.48 332.13,-170.8 322.55,-161 316.65,-154.96 310.43,-148.32 304.67,-142.04"/>
<polygon fill="black" stroke="black" points="307.5,-139.94 298.19,-134.9 302.32,-144.65 307.5,-139.94"/>
<text xml:space="preserve" text-anchor="middle" x="325.92" y="-170.07" font-family="Times,serif" font-style="italic" font-size="14.00">b</text>
</g>
<!-- q5&#45;&gt;q3 -->
<g id="edge19" class="edge">
<title>q5&#45;&gt;q3</title>
<path fill="none" stroke="black" d="M382.47,-216.71C394.96,-228.9 413.53,-247.03 428.54,-261.69"/>
<polygon fill="black" stroke="black" points="425.77,-263.87 435.37,-268.36 430.66,-258.86 425.77,-263.87"/>
<text xml:space="preserve" text-anchor="middle" x="408.94" y="-247.7" font-family="Times,serif" font-style="italic" font-size="14.00">c</text>
</g>
<!-- q5&#45;&gt;q5 -->
<g id="edge17" class="edge">
<title>q5&#45;&gt;q5</title>
<path fill="none" stroke="black" d="M359.97,-221.83C358.7,-231.93 361.19,-241.13 367.43,-241.13 371.14,-241.13 373.52,-237.89 374.58,-233.14"/>
<polygon fill="black" stroke="black" points="378.07,-233.44 374.85,-223.35 371.07,-233.25 378.07,-233.44"/>
<text xml:space="preserve" text-anchor="middle" x="367.43" y="-244.33" font-family="Times,serif" font-style="italic" font-size="14.00">a</text>
</g>
<!-- q6&#45;&gt;q1 -->
<g id="edge21" class="edge">
<title>q6&#45;&gt;q1</title>
<path fill="none" stroke="black" d="M521.7,-100.23C495.66,-94.21 447.06,-85.12 405.56,-89.5 374.53,-92.77 339.85,-100.53 315.05,-106.81"/>
<polygon fill="black" stroke="black" points="314.33,-103.38 305.53,-109.28 316.09,-110.16 314.33,-103.38"/>
<text xml:space="preserve" text-anchor="middle" x="408.94" y="-92.7" font-family="Times,serif" font-style="italic" font-size="14.00">b</text>
</g>
<!-- q6&#45;&gt;q1 -->
<g id="edge22" class="edge">
<title>q6&#45;&gt;q1</title>
<path fill="none" stroke="black" d="M523.24,-95.4C497.84,-82.38 448.66,-61.48 405.56,-68.5 372.43,-73.9 336.86,-88.5 312.33,-100.1"/>
<polygon fill="black" stroke="black" points="311.04,-96.84 303.57,-104.35 314.09,-103.14 311.04,-96.84"/>
<text xml:space="preserve" text-anchor="middle" x="408.94" y="-71.7" font-family="Times,serif" font-style="italic" font-size="14.00">c</text>
</g>
<!-- q6&#45;&gt;q6 -->
<g id="edge20" class="edge">
<title>q6&#45;&gt;q6</title>
<path fill="none" stroke="black" d="M533.99,-123.83C532.73,-133.93 535.21,-143.13 541.45,-143.13 545.16,-143.13 547.54,-139.89 548.6,-135.14"/>
<polygon fill="black" stroke="black" points="552.09,-135.44 548.87,-125.35 545.1,-135.25 552.09,-135.44"/>
<text xml:space="preserve" text-anchor="middle" x="541.45" y="-146.33" font-family="Times,serif" font-style="italic" font-size="14.00">a</text>
</g>
<!-- q4 -->
<g id="node8" class="node">
<title>q4</title>
<ellipse fill="none" stroke="black" cx="20.13" cy="-384" rx="20.13" ry="20.13"/>
<text xml:space="preserve" text-anchor="middle" x="20.13" y="-378.95" font-family="Times,serif" font-style="italic" font-size="14.00">q4</text>
</g>
<!-- q4&#45;&gt;q3 -->
<g id="edge15" class="edge">
<title>q4&#45;&gt;q3</title>
<path fill="none" stroke="black" d="M40.59,-384C56.85,-384 80.63,-384 101.39,-384 101.39,-384 101.39,-384 368.43,-384 403.58,-384 427.47,-347.58 440.76,-319.14"/>
<polygon fill="black" stroke="black" points="443.91,-320.68 444.73,-310.12 437.5,-317.86 443.91,-320.68"/>
<text xml:space="preserve" text-anchor="middle" x="234.91" y="-387.2" font-family="Times,serif" font-style="italic" font-size="14.00">b</text>
</g>
<!-- q4&#45;&gt;q0 -->
<g id="edge16" class="edge">
<title>q4&#45;&gt;q0</title>
<path fill="none" stroke="black" d="M33.67,-368.69C46.57,-352.94 66.84,-328.19 81.85,-309.87"/>
<polygon fill="black" stroke="black" points="84.35,-312.33 87.98,-302.38 78.94,-307.89 84.35,-312.33"/>
<text xml:space="preserve" text-anchor="middle" x="61.26" y="-341.14" font-family="Times,serif" font-style="italic" font-size="14.00">c</text>
</g>
<!-- q4&#45;&gt;q6 -->
<g id="edge14" class="edge">
<title>q4&#45;&gt;q6</title>
<path fill="none" stroke="black" d="M35.12,-398.05C50.15,-411.58 75.38,-430 101.39,-430 101.39,-430 101.39,-430 455.44,-430 515.69,-430 534.07,-218.29 538.91,-136.62"/>
<polygon fill="black" stroke="black" points="542.39,-137.02 539.46,-126.84 535.4,-136.63 542.39,-137.02"/>
<text xml:space="preserve" text-anchor="middle" x="280.42" y="-433.2" font-family="Times,serif" font-style="italic" font-size="14.00">a</text>
</g>
</g>
</svg>
